%TF.GenerationSoftware,Altium Limited,Altium Designer,22.5.1 (42)*%
G04 Layer_Color=255*
%FSLAX45Y45*%
%MOMM*%
%TF.SameCoordinates,23F47D9D-8B9D-40EC-A212-7CA489FF55AC*%
%TF.FilePolarity,Positive*%
%TF.FileFunction,Pads,Top*%
%TF.Part,Single*%
G01*
G75*
%TA.AperFunction,ComponentPad*%
%ADD11R,1.52400X1.52400*%
%ADD12C,1.52400*%
%ADD13C,3.50000*%
%ADD14C,1.25800*%
%ADD15R,1.59000X1.59000*%
%ADD16C,1.59000*%
%ADD17C,1.50800*%
%ADD18R,1.50800X1.50800*%
%ADD19C,1.65100*%
D11*
X15138400Y7391400D02*
D03*
D12*
Y7137400D02*
D03*
Y6883400D02*
D03*
Y6629400D02*
D03*
Y7645400D02*
D03*
Y7899400D02*
D03*
X16764000Y4445000D02*
D03*
X16510001D02*
D03*
X16256000D02*
D03*
X16002000D02*
D03*
X15748000D02*
D03*
X15494000D02*
D03*
X15239999D02*
D03*
X14994000D02*
D03*
X17285400Y5562900D02*
D03*
X17035400D02*
D03*
X16785400D02*
D03*
X16535400D02*
D03*
X16285400D02*
D03*
X16035400D02*
D03*
X9550400Y8243400D02*
D03*
X11200400Y4343400D02*
D03*
X9550400D02*
D03*
X11200400Y8243400D02*
D03*
D13*
X17322800Y8509000D02*
D03*
X9067800Y3073400D02*
D03*
X17322800D02*
D03*
D14*
X16764000Y2952000D02*
D03*
Y3652000D02*
D03*
X16256000Y2952000D02*
D03*
Y3652000D02*
D03*
X15748000Y2952000D02*
D03*
Y3652000D02*
D03*
X15239999Y2952000D02*
D03*
Y3652000D02*
D03*
D15*
X14482001Y5562600D02*
D03*
X12562225Y8102600D02*
D03*
D16*
X14732001Y5562600D02*
D03*
X14982001D02*
D03*
X15232001D02*
D03*
X12812225Y8102600D02*
D03*
X13062225D02*
D03*
X13312225D02*
D03*
D17*
X10214800Y3378200D02*
D03*
X12090400Y3454400D02*
D03*
Y3708400D02*
D03*
Y3962400D02*
D03*
Y4216400D02*
D03*
Y4470400D02*
D03*
Y4724400D02*
D03*
Y4978400D02*
D03*
Y5232400D02*
D03*
Y5486400D02*
D03*
Y5740400D02*
D03*
Y5994400D02*
D03*
Y6248400D02*
D03*
Y6502400D02*
D03*
Y6756400D02*
D03*
Y7010400D02*
D03*
X13614400D02*
D03*
Y6756400D02*
D03*
Y6502400D02*
D03*
Y6248400D02*
D03*
Y5994400D02*
D03*
Y5740400D02*
D03*
Y5486400D02*
D03*
Y5232400D02*
D03*
Y4978400D02*
D03*
Y4724400D02*
D03*
Y4470400D02*
D03*
Y4216400D02*
D03*
Y3962400D02*
D03*
Y3708400D02*
D03*
D18*
X10464800Y3378200D02*
D03*
X13614400Y3454400D02*
D03*
D19*
X12090400Y3200400D02*
D03*
X13614400D02*
D03*
X12090400Y7264400D02*
D03*
X13614400D02*
D03*
%TF.MD5,c891805b7e2c69c16639a6aedbf2e6cf*%
M02*
