G04*
G04 #@! TF.GenerationSoftware,Altium Limited,Altium Designer,22.5.1 (42)*
G04*
G04 Layer_Physical_Order=2*
G04 Layer_Color=16711680*
%FSLAX42Y42*%
%MOMM*%
G71*
G04*
G04 #@! TF.SameCoordinates,9A8E8AE2-EB4B-44E5-8707-8227BA4DF72F*
G04*
G04*
G04 #@! TF.FilePolarity,Positive*
G04*
G01*
G75*
%ADD10C,0.20*%
%ADD11C,0.25*%
%ADD12C,0.13*%
%ADD13C,0.05*%
%ADD23R,1.52X1.52*%
%ADD24C,1.52*%
%ADD25C,3.50*%
%ADD26C,1.26*%
%ADD27R,1.59X1.59*%
%ADD28C,1.59*%
%ADD29C,1.51*%
%ADD30R,1.51X1.51*%
%ADD31C,1.65*%
D10*
X10475Y3676D02*
G03*
X10475Y3676I-10J0D01*
G01*
X13837Y3432D02*
G03*
X13837Y3432I-10J0D01*
G01*
D11*
X16785Y5563D02*
Y5744D01*
X13474Y6616D02*
X13634D01*
X13380Y6870D02*
X13634D01*
X16142Y4467D02*
X16234D01*
X16256Y4445D01*
X14156Y7137D02*
X15138D01*
X14156Y7391D02*
X15138D01*
X13634Y6870D02*
X14156Y7391D01*
X16418Y5680D02*
X16535Y5563D01*
X16579Y5445D02*
X16673Y5539D01*
X16761D01*
X16785Y5563D01*
X12137Y5627D02*
X13380Y6870D01*
X15837Y6261D02*
X16418Y5680D01*
X14850D02*
X16418D01*
X14600Y5445D02*
X16579D01*
X12090Y5232D02*
X13474Y6616D01*
X15138Y7137D02*
X15837Y6439D01*
X15138Y7391D02*
X16785Y5744D01*
X13614Y5740D02*
X14021Y5334D01*
X15837Y6261D02*
Y6439D01*
X15875Y5334D02*
X16764Y4445D01*
X13634Y6616D02*
X14156Y7137D01*
X12070Y5627D02*
X12137D01*
X14961Y5232D02*
X15748Y4445D01*
X11977Y5092D02*
X12090Y4978D01*
X11977Y5092D02*
Y5533D01*
X15325Y5283D02*
X16142Y4467D01*
X13614Y5232D02*
X14961D01*
X14732Y5563D02*
X14850Y5680D01*
X13614Y4978D02*
X14707D01*
X15240Y4445D01*
X14482Y5563D02*
X14600Y5445D01*
X14021Y5334D02*
X15875D01*
X11977Y5533D02*
X12070Y5627D01*
X13614Y5486D02*
X13818Y5283D01*
X15325D01*
X15977Y6718D02*
X15877D01*
X15910Y6752D01*
X15877Y6785D01*
X15977D01*
X15893Y6885D02*
X15877Y6868D01*
Y6835D01*
X15893Y6818D01*
X15960D01*
X15977Y6835D01*
Y6868D01*
X15960Y6885D01*
X15977Y6918D02*
X15877D01*
Y6968D01*
X15893Y6985D01*
X15927D01*
X15943Y6968D01*
Y6918D01*
X15977Y7068D02*
X15877D01*
X15927Y7018D01*
Y7085D01*
X15877Y7118D02*
Y7185D01*
X15893D01*
X15960Y7118D01*
X15977D01*
Y7285D02*
Y7218D01*
X15910Y7285D01*
X15893D01*
X15877Y7268D01*
Y7235D01*
X15893Y7218D01*
X15877Y7385D02*
Y7318D01*
X15927D01*
X15910Y7351D01*
Y7368D01*
X15927Y7385D01*
X15960D01*
X15977Y7368D01*
Y7335D01*
X15960Y7318D01*
D12*
X16671Y3127D02*
Y3477D01*
X16764D01*
X16857D01*
Y3127D02*
Y3477D01*
X16764Y3127D02*
X16857D01*
X16671D02*
X16764D01*
Y3009D02*
Y3127D01*
Y3477D02*
Y3594D01*
X16163Y3127D02*
Y3477D01*
X16256D01*
X16349D01*
Y3127D02*
Y3477D01*
X16256Y3127D02*
X16349D01*
X16163D02*
X16256D01*
Y3009D02*
Y3127D01*
Y3477D02*
Y3594D01*
X15655Y3127D02*
Y3477D01*
X15748D01*
X15840D01*
Y3127D02*
Y3477D01*
X15748Y3127D02*
X15840D01*
X15655D02*
X15748D01*
Y3009D02*
Y3127D01*
Y3477D02*
Y3594D01*
X14237Y5223D02*
X15477D01*
Y5798D01*
X14237D02*
X15477D01*
X14237Y5223D02*
Y5798D01*
X12317Y7763D02*
X13557D01*
Y8338D01*
X12317D02*
X13557D01*
X12317Y7763D02*
Y8338D01*
X9970Y3613D02*
X10710D01*
X9970Y3038D02*
Y3613D01*
Y3038D02*
X10710D01*
Y3613D01*
X11963Y7391D02*
X13741D01*
X11963Y3073D02*
Y7391D01*
X13741Y3073D02*
Y7391D01*
X11963Y3073D02*
X13741D01*
X15148Y3127D02*
Y3477D01*
X15240D01*
X15332D01*
Y3127D02*
Y3477D01*
X15240Y3127D02*
X15332D01*
X15148D02*
X15240D01*
Y3009D02*
Y3127D01*
Y3477D02*
Y3594D01*
D13*
X16646Y3102D02*
Y3502D01*
X16676D01*
Y3740D01*
X16852D01*
Y3502D02*
Y3740D01*
Y3502D02*
X16882D01*
Y3102D02*
Y3502D01*
X16852Y3102D02*
X16882D01*
X16852Y2864D02*
Y3102D01*
X16676Y2864D02*
X16852D01*
X16676D02*
Y3102D01*
X16646D02*
X16676D01*
X16138D02*
Y3502D01*
X16168D01*
Y3740D01*
X16344D01*
Y3502D02*
Y3740D01*
Y3502D02*
X16374D01*
Y3102D02*
Y3502D01*
X16344Y3102D02*
X16374D01*
X16344Y2864D02*
Y3102D01*
X16168Y2864D02*
X16344D01*
X16168D02*
Y3102D01*
X16138D02*
X16168D01*
X15630D02*
Y3502D01*
X15660D01*
Y3740D01*
X15836D01*
Y3502D02*
Y3740D01*
Y3502D02*
X15865D01*
Y3102D02*
Y3502D01*
X15836Y3102D02*
X15865D01*
X15836Y2864D02*
Y3102D01*
X15660Y2864D02*
X15836D01*
X15660D02*
Y3102D01*
X15630D02*
X15660D01*
X14212Y5823D02*
X15502D01*
Y5198D02*
Y5823D01*
X14212Y5198D02*
X15502D01*
X14212D02*
Y5823D01*
X12292Y8363D02*
X13582D01*
Y7738D02*
Y8363D01*
X12292Y7738D02*
X13582D01*
X12292D02*
Y8363D01*
X9945Y3638D02*
X10735D01*
X9945Y3013D02*
Y3638D01*
Y3013D02*
X10735D01*
Y3638D01*
X13766Y3048D02*
Y7416D01*
X11938D02*
X13766D01*
X11938Y3048D02*
Y7416D01*
Y3048D02*
X13766D01*
X15123Y3102D02*
Y3502D01*
X15152D01*
Y3740D01*
X15328D01*
Y3502D02*
Y3740D01*
Y3502D02*
X15357D01*
Y3102D02*
Y3502D01*
X15328Y3102D02*
X15357D01*
X15328Y2864D02*
Y3102D01*
X15152Y2864D02*
X15328D01*
X15152D02*
Y3102D01*
X15123D02*
X15152D01*
D23*
X15138Y7391D02*
D03*
D24*
Y7137D02*
D03*
Y6883D02*
D03*
Y6629D02*
D03*
Y7645D02*
D03*
Y7899D02*
D03*
X16764Y4445D02*
D03*
X16510D02*
D03*
X16256D02*
D03*
X16002D02*
D03*
X15748D02*
D03*
X15494D02*
D03*
X15240D02*
D03*
X14994D02*
D03*
X17285Y5563D02*
D03*
X17035D02*
D03*
X16785D02*
D03*
X16535D02*
D03*
X16285D02*
D03*
X16035D02*
D03*
X9550Y8243D02*
D03*
X11200Y4343D02*
D03*
X9550D02*
D03*
X11200Y8243D02*
D03*
D25*
X17323Y8509D02*
D03*
X9068Y3073D02*
D03*
X17323D02*
D03*
D26*
X16764Y2952D02*
D03*
Y3652D02*
D03*
X16256Y2952D02*
D03*
Y3652D02*
D03*
X15748Y2952D02*
D03*
Y3652D02*
D03*
X15240Y2952D02*
D03*
Y3652D02*
D03*
D27*
X14482Y5563D02*
D03*
X12562Y8103D02*
D03*
D28*
X14732Y5563D02*
D03*
X14982D02*
D03*
X15232D02*
D03*
X12812Y8103D02*
D03*
X13062D02*
D03*
X13312D02*
D03*
D29*
X10215Y3378D02*
D03*
X12090Y3454D02*
D03*
Y3708D02*
D03*
Y3962D02*
D03*
Y4216D02*
D03*
Y4470D02*
D03*
Y4724D02*
D03*
Y4978D02*
D03*
Y5232D02*
D03*
Y5486D02*
D03*
Y5740D02*
D03*
Y5994D02*
D03*
Y6248D02*
D03*
Y6502D02*
D03*
Y6756D02*
D03*
Y7010D02*
D03*
X13614D02*
D03*
Y6756D02*
D03*
Y6502D02*
D03*
Y6248D02*
D03*
Y5994D02*
D03*
Y5740D02*
D03*
Y5486D02*
D03*
Y5232D02*
D03*
Y4978D02*
D03*
Y4724D02*
D03*
Y4470D02*
D03*
Y4216D02*
D03*
Y3962D02*
D03*
Y3708D02*
D03*
D30*
X10465Y3378D02*
D03*
X13614Y3454D02*
D03*
D31*
X12090Y3200D02*
D03*
X13614D02*
D03*
X12090Y7264D02*
D03*
X13614D02*
D03*
M02*
