G04*
G04 #@! TF.GenerationSoftware,Altium Limited,Altium Designer,22.5.1 (42)*
G04*
G04 Layer_Color=128*
%FSLAX42Y42*%
%MOMM*%
G71*
G04*
G04 #@! TF.SameCoordinates,9A8E8AE2-EB4B-44E5-8707-8227BA4DF72F*
G04*
G04*
G04 #@! TF.FilePolarity,Positive*
G04*
G01*
G75*
%ADD10C,0.20*%
%ADD11C,0.25*%
%ADD12C,0.13*%
%ADD13C,0.05*%
%ADD32C,0.05*%
D10*
X10475Y3676D02*
G03*
X10475Y3676I-10J0D01*
G01*
X13837Y3432D02*
G03*
X13837Y3432I-10J0D01*
G01*
D11*
X15977Y6718D02*
X15877D01*
X15910Y6752D01*
X15877Y6785D01*
X15977D01*
X15893Y6885D02*
X15877Y6868D01*
Y6835D01*
X15893Y6818D01*
X15960D01*
X15977Y6835D01*
Y6868D01*
X15960Y6885D01*
X15977Y6918D02*
X15877D01*
Y6968D01*
X15893Y6985D01*
X15927D01*
X15943Y6968D01*
Y6918D01*
X15977Y7068D02*
X15877D01*
X15927Y7018D01*
Y7085D01*
X15877Y7118D02*
Y7185D01*
X15893D01*
X15960Y7118D01*
X15977D01*
Y7285D02*
Y7218D01*
X15910Y7285D01*
X15893D01*
X15877Y7268D01*
Y7235D01*
X15893Y7218D01*
X15877Y7385D02*
Y7318D01*
X15927D01*
X15910Y7351D01*
Y7368D01*
X15927Y7385D01*
X15960D01*
X15977Y7368D01*
Y7335D01*
X15960Y7318D01*
D12*
X16671Y3127D02*
Y3477D01*
X16764D01*
X16857D01*
Y3127D02*
Y3477D01*
X16764Y3127D02*
X16857D01*
X16671D02*
X16764D01*
Y3009D02*
Y3127D01*
Y3477D02*
Y3594D01*
X16163Y3127D02*
Y3477D01*
X16256D01*
X16349D01*
Y3127D02*
Y3477D01*
X16256Y3127D02*
X16349D01*
X16163D02*
X16256D01*
Y3009D02*
Y3127D01*
Y3477D02*
Y3594D01*
X15655Y3127D02*
Y3477D01*
X15748D01*
X15840D01*
Y3127D02*
Y3477D01*
X15748Y3127D02*
X15840D01*
X15655D02*
X15748D01*
Y3009D02*
Y3127D01*
Y3477D02*
Y3594D01*
X14237Y5223D02*
X15477D01*
Y5798D01*
X14237D02*
X15477D01*
X14237Y5223D02*
Y5798D01*
X12317Y7763D02*
X13557D01*
Y8338D01*
X12317D02*
X13557D01*
X12317Y7763D02*
Y8338D01*
X9970Y3613D02*
X10710D01*
X9970Y3038D02*
Y3613D01*
Y3038D02*
X10710D01*
Y3613D01*
X11963Y7391D02*
X13741D01*
X11963Y3073D02*
Y7391D01*
X13741Y3073D02*
Y7391D01*
X11963Y3073D02*
X13741D01*
X15148Y3127D02*
Y3477D01*
X15240D01*
X15332D01*
Y3127D02*
Y3477D01*
X15240Y3127D02*
X15332D01*
X15148D02*
X15240D01*
Y3009D02*
Y3127D01*
Y3477D02*
Y3594D01*
D13*
X16646Y3102D02*
Y3502D01*
X16676D01*
Y3740D01*
X16852D01*
Y3502D02*
Y3740D01*
Y3502D02*
X16882D01*
Y3102D02*
Y3502D01*
X16852Y3102D02*
X16882D01*
X16852Y2864D02*
Y3102D01*
X16676Y2864D02*
X16852D01*
X16676D02*
Y3102D01*
X16646D02*
X16676D01*
X16138D02*
Y3502D01*
X16168D01*
Y3740D01*
X16344D01*
Y3502D02*
Y3740D01*
Y3502D02*
X16374D01*
Y3102D02*
Y3502D01*
X16344Y3102D02*
X16374D01*
X16344Y2864D02*
Y3102D01*
X16168Y2864D02*
X16344D01*
X16168D02*
Y3102D01*
X16138D02*
X16168D01*
X15630D02*
Y3502D01*
X15660D01*
Y3740D01*
X15836D01*
Y3502D02*
Y3740D01*
Y3502D02*
X15865D01*
Y3102D02*
Y3502D01*
X15836Y3102D02*
X15865D01*
X15836Y2864D02*
Y3102D01*
X15660Y2864D02*
X15836D01*
X15660D02*
Y3102D01*
X15630D02*
X15660D01*
X14212Y5823D02*
X15502D01*
Y5198D02*
Y5823D01*
X14212Y5198D02*
X15502D01*
X14212D02*
Y5823D01*
X12292Y8363D02*
X13582D01*
Y7738D02*
Y8363D01*
X12292Y7738D02*
X13582D01*
X12292D02*
Y8363D01*
X9945Y3638D02*
X10735D01*
X9945Y3013D02*
Y3638D01*
Y3013D02*
X10735D01*
Y3638D01*
X13766Y3048D02*
Y7416D01*
X11938D02*
X13766D01*
X11938Y3048D02*
Y7416D01*
Y3048D02*
X13766D01*
X15123Y3102D02*
Y3502D01*
X15152D01*
Y3740D01*
X15328D01*
Y3502D02*
Y3740D01*
Y3502D02*
X15357D01*
Y3102D02*
Y3502D01*
X15328Y3102D02*
X15357D01*
X15328Y2864D02*
Y3102D01*
X15152Y2864D02*
X15328D01*
X15152D02*
Y3102D01*
X15123D02*
X15152D01*
D32*
X15100Y7391D02*
X15176D01*
X15138Y7353D02*
Y7429D01*
X15100Y7137D02*
X15176D01*
X15138Y7099D02*
Y7175D01*
X15100Y6883D02*
X15176D01*
X15138Y6845D02*
Y6921D01*
X15100Y6629D02*
X15176D01*
X15138Y6591D02*
Y6668D01*
X15100Y7645D02*
X15176D01*
X15138Y7607D02*
Y7683D01*
X15100Y7899D02*
X15176D01*
X15138Y7861D02*
Y7938D01*
X17173Y8509D02*
X17473D01*
X17323Y8359D02*
Y8659D01*
X8918Y3073D02*
X9218D01*
X9068Y2923D02*
Y3223D01*
X16726Y2952D02*
X16801D01*
X16764Y2915D02*
Y2990D01*
X16726Y3652D02*
X16801D01*
X16764Y3615D02*
Y3690D01*
X16218Y2952D02*
X16293D01*
X16256Y2915D02*
Y2990D01*
X16218Y3652D02*
X16293D01*
X16256Y3615D02*
Y3690D01*
X15710Y2952D02*
X15785D01*
X15748Y2915D02*
Y2990D01*
X15710Y3652D02*
X15785D01*
X15748Y3615D02*
Y3690D01*
X17173Y3073D02*
X17473D01*
X17323Y2923D02*
Y3223D01*
X16726Y4445D02*
X16802D01*
X16764Y4407D02*
Y4483D01*
X16472Y4445D02*
X16548D01*
X16510Y4407D02*
Y4483D01*
X16218Y4445D02*
X16294D01*
X16256Y4407D02*
Y4483D01*
X15964Y4445D02*
X16040D01*
X16002Y4407D02*
Y4483D01*
X15710Y4445D02*
X15786D01*
X15748Y4407D02*
Y4483D01*
X15456Y4445D02*
X15532D01*
X15494Y4407D02*
Y4483D01*
X15202Y4445D02*
X15278D01*
X15240Y4407D02*
Y4483D01*
X14956Y4445D02*
X15032D01*
X14994Y4407D02*
Y4483D01*
X17247Y5563D02*
X17324D01*
X17285Y5525D02*
Y5601D01*
X16997Y5563D02*
X17074D01*
X17035Y5525D02*
Y5601D01*
X16747Y5563D02*
X16824D01*
X16785Y5525D02*
Y5601D01*
X16497Y5563D02*
X16574D01*
X16535Y5525D02*
Y5601D01*
X16247Y5563D02*
X16324D01*
X16285Y5525D02*
Y5601D01*
X15997Y5563D02*
X16074D01*
X16035Y5525D02*
Y5601D01*
X14429Y5563D02*
X14535D01*
X14482Y5510D02*
Y5616D01*
X14679Y5563D02*
X14785D01*
X14732Y5510D02*
Y5616D01*
X14929Y5563D02*
X15035D01*
X14982Y5510D02*
Y5616D01*
X15179Y5563D02*
X15285D01*
X15232Y5510D02*
Y5616D01*
X12509Y8103D02*
X12615D01*
X12562Y8050D02*
Y8156D01*
X12759Y8103D02*
X12865D01*
X12812Y8050D02*
Y8156D01*
X13009Y8103D02*
X13115D01*
X13062Y8050D02*
Y8156D01*
X13259Y8103D02*
X13365D01*
X13312Y8050D02*
Y8156D01*
X10165Y3378D02*
X10265D01*
X10215Y3328D02*
Y3428D01*
X10415Y3378D02*
X10515D01*
X10465Y3328D02*
Y3428D01*
X9512Y8243D02*
X9589D01*
X9550Y8205D02*
Y8282D01*
X11162Y4343D02*
X11239D01*
X11200Y4305D02*
Y4381D01*
X9512Y4343D02*
X9589D01*
X9550Y4305D02*
Y4381D01*
X11162Y8243D02*
X11239D01*
X11200Y8205D02*
Y8282D01*
X12008Y3200D02*
X12173D01*
X12090Y3118D02*
Y3283D01*
X13532Y3200D02*
X13697D01*
X13614Y3118D02*
Y3283D01*
X12008Y7264D02*
X12173D01*
X12090Y7182D02*
Y7347D01*
X13532Y7264D02*
X13697D01*
X13614Y7182D02*
Y7347D01*
X12040Y3454D02*
X12140D01*
X12090Y3404D02*
Y3504D01*
X12040Y3708D02*
X12140D01*
X12090Y3658D02*
Y3758D01*
X12040Y3962D02*
X12140D01*
X12090Y3912D02*
Y4012D01*
X12040Y4216D02*
X12140D01*
X12090Y4166D02*
Y4266D01*
X12040Y4470D02*
X12140D01*
X12090Y4420D02*
Y4520D01*
X12040Y4724D02*
X12140D01*
X12090Y4674D02*
Y4774D01*
X12040Y4978D02*
X12140D01*
X12090Y4928D02*
Y5028D01*
X12040Y5232D02*
X12140D01*
X12090Y5182D02*
Y5282D01*
X12040Y5486D02*
X12140D01*
X12090Y5436D02*
Y5536D01*
X12040Y5740D02*
X12140D01*
X12090Y5690D02*
Y5790D01*
X12040Y5994D02*
X12140D01*
X12090Y5944D02*
Y6044D01*
X12040Y6248D02*
X12140D01*
X12090Y6198D02*
Y6298D01*
X12040Y6502D02*
X12140D01*
X12090Y6452D02*
Y6552D01*
X12040Y6756D02*
X12140D01*
X12090Y6706D02*
Y6806D01*
X12040Y7010D02*
X12140D01*
X12090Y6960D02*
Y7060D01*
X13564Y7010D02*
X13664D01*
X13614Y6960D02*
Y7060D01*
X13564Y6756D02*
X13664D01*
X13614Y6706D02*
Y6806D01*
X13564Y6502D02*
X13664D01*
X13614Y6452D02*
Y6552D01*
X13564Y6248D02*
X13664D01*
X13614Y6198D02*
Y6298D01*
X13564Y5994D02*
X13664D01*
X13614Y5944D02*
Y6044D01*
X13564Y5740D02*
X13664D01*
X13614Y5690D02*
Y5790D01*
X13564Y5486D02*
X13664D01*
X13614Y5436D02*
Y5536D01*
X13564Y5232D02*
X13664D01*
X13614Y5182D02*
Y5282D01*
X13564Y4978D02*
X13664D01*
X13614Y4928D02*
Y5028D01*
X13564Y4724D02*
X13664D01*
X13614Y4674D02*
Y4774D01*
X13564Y4470D02*
X13664D01*
X13614Y4420D02*
Y4520D01*
X13564Y4216D02*
X13664D01*
X13614Y4166D02*
Y4266D01*
X13564Y3962D02*
X13664D01*
X13614Y3912D02*
Y4012D01*
X13564Y3708D02*
X13664D01*
X13614Y3658D02*
Y3758D01*
X13564Y3454D02*
X13664D01*
X13614Y3404D02*
Y3504D01*
X15202Y2952D02*
X15277D01*
X15240Y2915D02*
Y2990D01*
X15202Y3652D02*
X15277D01*
X15240Y3615D02*
Y3690D01*
M02*
