%TF.GenerationSoftware,Altium Limited,Altium Designer,22.5.1 (42)*%
G04 Layer_Color=2752767*
%FSLAX45Y45*%
%MOMM*%
%TF.SameCoordinates,23F47D9D-8B9D-40EC-A212-7CA489FF55AC*%
%TF.FilePolarity,Positive*%
%TF.FileFunction,Drawing*%
%TF.Part,Single*%
G01*
G75*
%TA.AperFunction,NonConductor*%
%ADD31C,0.12700*%
%ADD41C,0.16933*%
D31*
X15087601Y7340600D02*
X15113000Y7391400D01*
X15087601Y7442200D01*
X15138400Y7416800D01*
X15189200Y7442200D01*
X15163800Y7391400D01*
X15189200Y7340600D01*
X15138400Y7366000D01*
X15087601Y7340600D01*
Y7086600D02*
X15113000Y7137400D01*
X15087601Y7188200D01*
X15138400Y7162800D01*
X15189200Y7188200D01*
X15163800Y7137400D01*
X15189200Y7086600D01*
X15138400Y7112000D01*
X15087601Y7086600D01*
Y6832600D02*
X15113000Y6883400D01*
X15087601Y6934200D01*
X15138400Y6908800D01*
X15189200Y6934200D01*
X15163800Y6883400D01*
X15189200Y6832600D01*
X15138400Y6858000D01*
X15087601Y6832600D01*
Y6578600D02*
X15113000Y6629400D01*
X15087601Y6680200D01*
X15138400Y6654800D01*
X15189200Y6680200D01*
X15163800Y6629400D01*
X15189200Y6578600D01*
X15138400Y6604000D01*
X15087601Y6578600D01*
Y7594600D02*
X15113000Y7645400D01*
X15087601Y7696200D01*
X15138400Y7670800D01*
X15189200Y7696200D01*
X15163800Y7645400D01*
X15189200Y7594600D01*
X15138400Y7620000D01*
X15087601Y7594600D01*
Y7848600D02*
X15113000Y7899400D01*
X15087601Y7950200D01*
X15138400Y7924800D01*
X15189200Y7950200D01*
X15163800Y7899400D01*
X15189200Y7848600D01*
X15138400Y7874000D01*
X15087601Y7848600D01*
X17272000Y8509000D02*
X17322800Y8559800D01*
X17373599Y8509000D01*
X17322800Y8458200D01*
X17272000Y8509000D01*
X9017000Y3073400D02*
X9067800Y3124200D01*
X9118600Y3073400D01*
X9067800Y3022600D01*
X9017000Y3073400D01*
X16713200Y2901200D02*
Y3002800D01*
X16814799D01*
Y2901200D01*
X16713200D01*
Y3601200D02*
Y3702800D01*
X16814799D01*
Y3601200D01*
X16713200D01*
X16205200Y2901200D02*
Y3002800D01*
X16306799D01*
Y2901200D01*
X16205200D01*
Y3601200D02*
Y3702800D01*
X16306799D01*
Y3601200D01*
X16205200D01*
X15697200Y2901200D02*
Y3002800D01*
X15798801D01*
Y2901200D01*
X15697200D01*
Y3601200D02*
Y3702800D01*
X15798801D01*
Y3601200D01*
X15697200D01*
X17272000Y3073400D02*
X17322800Y3124200D01*
X17373599Y3073400D01*
X17322800Y3022600D01*
X17272000Y3073400D01*
X16713200Y4394200D02*
X16738600Y4445000D01*
X16713200Y4495800D01*
X16764000Y4470400D01*
X16814799Y4495800D01*
X16789400Y4445000D01*
X16814799Y4394200D01*
X16764000Y4419600D01*
X16713200Y4394200D01*
X16459200D02*
X16484599Y4445000D01*
X16459200Y4495800D01*
X16510001Y4470400D01*
X16560800Y4495800D01*
X16535400Y4445000D01*
X16560800Y4394200D01*
X16510001Y4419600D01*
X16459200Y4394200D01*
X16205200D02*
X16230600Y4445000D01*
X16205200Y4495800D01*
X16256000Y4470400D01*
X16306799Y4495800D01*
X16281400Y4445000D01*
X16306799Y4394200D01*
X16256000Y4419600D01*
X16205200Y4394200D01*
X15951199D02*
X15976601Y4445000D01*
X15951199Y4495800D01*
X16002000Y4470400D01*
X16052800Y4495800D01*
X16027400Y4445000D01*
X16052800Y4394200D01*
X16002000Y4419600D01*
X15951199Y4394200D01*
X15697200D02*
X15722600Y4445000D01*
X15697200Y4495800D01*
X15748000Y4470400D01*
X15798801Y4495800D01*
X15773399Y4445000D01*
X15798801Y4394200D01*
X15748000Y4419600D01*
X15697200Y4394200D01*
X15443201D02*
X15468600Y4445000D01*
X15443201Y4495800D01*
X15494000Y4470400D01*
X15544800Y4495800D01*
X15519400Y4445000D01*
X15544800Y4394200D01*
X15494000Y4419600D01*
X15443201Y4394200D01*
X15189200D02*
X15214600Y4445000D01*
X15189200Y4495800D01*
X15239999Y4470400D01*
X15290800Y4495800D01*
X15265401Y4445000D01*
X15290800Y4394200D01*
X15239999Y4419600D01*
X15189200Y4394200D01*
X14943201D02*
X14968600Y4445000D01*
X14943201Y4495800D01*
X14994000Y4470400D01*
X15044800Y4495800D01*
X15019400Y4445000D01*
X15044800Y4394200D01*
X14994000Y4419600D01*
X14943201Y4394200D01*
X17234599Y5512100D02*
X17260001Y5562900D01*
X17234599Y5613700D01*
X17285400Y5588300D01*
X17336200Y5613700D01*
X17310800Y5562900D01*
X17336200Y5512100D01*
X17285400Y5537500D01*
X17234599Y5512100D01*
X16984599D02*
X17010001Y5562900D01*
X16984599Y5613700D01*
X17035400Y5588300D01*
X17086200Y5613700D01*
X17060800Y5562900D01*
X17086200Y5512100D01*
X17035400Y5537500D01*
X16984599Y5512100D01*
X16734599D02*
X16760001Y5562900D01*
X16734599Y5613700D01*
X16785400Y5588300D01*
X16836200Y5613700D01*
X16810800Y5562900D01*
X16836200Y5512100D01*
X16785400Y5537500D01*
X16734599Y5512100D01*
X16484599D02*
X16510001Y5562900D01*
X16484599Y5613700D01*
X16535400Y5588300D01*
X16586200Y5613700D01*
X16560800Y5562900D01*
X16586200Y5512100D01*
X16535400Y5537500D01*
X16484599Y5512100D01*
X16234599D02*
X16260001Y5562900D01*
X16234599Y5613700D01*
X16285400Y5588300D01*
X16336200Y5613700D01*
X16310800Y5562900D01*
X16336200Y5512100D01*
X16285400Y5537500D01*
X16234599Y5512100D01*
X15984599D02*
X16010001Y5562900D01*
X15984599Y5613700D01*
X16035400Y5588300D01*
X16086200Y5613700D01*
X16060800Y5562900D01*
X16086200Y5512100D01*
X16035400Y5537500D01*
X15984599Y5512100D01*
X10214800Y3327400D02*
X10240200Y3352800D01*
X10265600D01*
X10240200Y3378200D01*
X10265600Y3403600D01*
X10240200D01*
X10214800Y3429000D01*
X10189400Y3403600D01*
X10164000D01*
X10189400Y3378200D01*
X10164000Y3352800D01*
X10189400D01*
X10214800Y3327400D01*
X10464800D02*
X10490200Y3352800D01*
X10515600D01*
X10490200Y3378200D01*
X10515600Y3403600D01*
X10490200D01*
X10464800Y3429000D01*
X10439400Y3403600D01*
X10414000D01*
X10439400Y3378200D01*
X10414000Y3352800D01*
X10439400D01*
X10464800Y3327400D01*
X9499600Y8192600D02*
X9525000Y8243400D01*
X9499600Y8294200D01*
X9550400Y8268800D01*
X9601200Y8294200D01*
X9575800Y8243400D01*
X9601200Y8192600D01*
X9550400Y8218000D01*
X9499600Y8192600D01*
X11149600Y4292600D02*
X11175000Y4343400D01*
X11149600Y4394200D01*
X11200400Y4368800D01*
X11251200Y4394200D01*
X11225800Y4343400D01*
X11251200Y4292600D01*
X11200400Y4318000D01*
X11149600Y4292600D01*
X9499600D02*
X9525000Y4343400D01*
X9499600Y4394200D01*
X9550400Y4368800D01*
X9601200Y4394200D01*
X9575800Y4343400D01*
X9601200Y4292600D01*
X9550400Y4318000D01*
X9499600Y4292600D01*
X11149600Y8192600D02*
X11175000Y8243400D01*
X11149600Y8294200D01*
X11200400Y8268800D01*
X11251200Y8294200D01*
X11225800Y8243400D01*
X11251200Y8192600D01*
X11200400Y8218000D01*
X11149600Y8192600D01*
X12090400Y3149600D02*
X12039600Y3251200D01*
X12141200D01*
X12090400Y3149600D01*
X13614400D02*
X13563600Y3251200D01*
X13665199D01*
X13614400Y3149600D01*
X12090400Y7213600D02*
X12039600Y7315200D01*
X12141200D01*
X12090400Y7213600D01*
X13614400D02*
X13563600Y7315200D01*
X13665199D01*
X13614400Y7213600D01*
X12090400Y3403600D02*
X12115800Y3429000D01*
X12141200D01*
X12115800Y3454400D01*
X12141200Y3479800D01*
X12115800D01*
X12090400Y3505200D01*
X12065000Y3479800D01*
X12039600D01*
X12065000Y3454400D01*
X12039600Y3429000D01*
X12065000D01*
X12090400Y3403600D01*
Y3657600D02*
X12115800Y3683000D01*
X12141200D01*
X12115800Y3708400D01*
X12141200Y3733800D01*
X12115800D01*
X12090400Y3759200D01*
X12065000Y3733800D01*
X12039600D01*
X12065000Y3708400D01*
X12039600Y3683000D01*
X12065000D01*
X12090400Y3657600D01*
Y3911600D02*
X12115800Y3937000D01*
X12141200D01*
X12115800Y3962400D01*
X12141200Y3987800D01*
X12115800D01*
X12090400Y4013200D01*
X12065000Y3987800D01*
X12039600D01*
X12065000Y3962400D01*
X12039600Y3937000D01*
X12065000D01*
X12090400Y3911600D01*
Y4165600D02*
X12115800Y4191000D01*
X12141200D01*
X12115800Y4216400D01*
X12141200Y4241800D01*
X12115800D01*
X12090400Y4267200D01*
X12065000Y4241800D01*
X12039600D01*
X12065000Y4216400D01*
X12039600Y4191000D01*
X12065000D01*
X12090400Y4165600D01*
Y4419600D02*
X12115800Y4445000D01*
X12141200D01*
X12115800Y4470400D01*
X12141200Y4495800D01*
X12115800D01*
X12090400Y4521200D01*
X12065000Y4495800D01*
X12039600D01*
X12065000Y4470400D01*
X12039600Y4445000D01*
X12065000D01*
X12090400Y4419600D01*
Y4673600D02*
X12115800Y4699000D01*
X12141200D01*
X12115800Y4724400D01*
X12141200Y4749800D01*
X12115800D01*
X12090400Y4775200D01*
X12065000Y4749800D01*
X12039600D01*
X12065000Y4724400D01*
X12039600Y4699000D01*
X12065000D01*
X12090400Y4673600D01*
Y4927600D02*
X12115800Y4953000D01*
X12141200D01*
X12115800Y4978400D01*
X12141200Y5003800D01*
X12115800D01*
X12090400Y5029200D01*
X12065000Y5003800D01*
X12039600D01*
X12065000Y4978400D01*
X12039600Y4953000D01*
X12065000D01*
X12090400Y4927600D01*
Y5181600D02*
X12115800Y5207000D01*
X12141200D01*
X12115800Y5232400D01*
X12141200Y5257800D01*
X12115800D01*
X12090400Y5283200D01*
X12065000Y5257800D01*
X12039600D01*
X12065000Y5232400D01*
X12039600Y5207000D01*
X12065000D01*
X12090400Y5181600D01*
Y5435600D02*
X12115800Y5461000D01*
X12141200D01*
X12115800Y5486400D01*
X12141200Y5511800D01*
X12115800D01*
X12090400Y5537200D01*
X12065000Y5511800D01*
X12039600D01*
X12065000Y5486400D01*
X12039600Y5461000D01*
X12065000D01*
X12090400Y5435600D01*
Y5689600D02*
X12115800Y5715000D01*
X12141200D01*
X12115800Y5740400D01*
X12141200Y5765800D01*
X12115800D01*
X12090400Y5791200D01*
X12065000Y5765800D01*
X12039600D01*
X12065000Y5740400D01*
X12039600Y5715000D01*
X12065000D01*
X12090400Y5689600D01*
Y5943600D02*
X12115800Y5969000D01*
X12141200D01*
X12115800Y5994400D01*
X12141200Y6019800D01*
X12115800D01*
X12090400Y6045200D01*
X12065000Y6019800D01*
X12039600D01*
X12065000Y5994400D01*
X12039600Y5969000D01*
X12065000D01*
X12090400Y5943600D01*
Y6197600D02*
X12115800Y6223000D01*
X12141200D01*
X12115800Y6248400D01*
X12141200Y6273800D01*
X12115800D01*
X12090400Y6299200D01*
X12065000Y6273800D01*
X12039600D01*
X12065000Y6248400D01*
X12039600Y6223000D01*
X12065000D01*
X12090400Y6197600D01*
Y6451600D02*
X12115800Y6477000D01*
X12141200D01*
X12115800Y6502400D01*
X12141200Y6527800D01*
X12115800D01*
X12090400Y6553200D01*
X12065000Y6527800D01*
X12039600D01*
X12065000Y6502400D01*
X12039600Y6477000D01*
X12065000D01*
X12090400Y6451600D01*
Y6705600D02*
X12115800Y6731000D01*
X12141200D01*
X12115800Y6756400D01*
X12141200Y6781800D01*
X12115800D01*
X12090400Y6807200D01*
X12065000Y6781800D01*
X12039600D01*
X12065000Y6756400D01*
X12039600Y6731000D01*
X12065000D01*
X12090400Y6705600D01*
Y6959600D02*
X12115800Y6985000D01*
X12141200D01*
X12115800Y7010400D01*
X12141200Y7035800D01*
X12115800D01*
X12090400Y7061200D01*
X12065000Y7035800D01*
X12039600D01*
X12065000Y7010400D01*
X12039600Y6985000D01*
X12065000D01*
X12090400Y6959600D01*
X13614400D02*
X13639799Y6985000D01*
X13665199D01*
X13639799Y7010400D01*
X13665199Y7035800D01*
X13639799D01*
X13614400Y7061200D01*
X13589000Y7035800D01*
X13563600D01*
X13589000Y7010400D01*
X13563600Y6985000D01*
X13589000D01*
X13614400Y6959600D01*
Y6705600D02*
X13639799Y6731000D01*
X13665199D01*
X13639799Y6756400D01*
X13665199Y6781800D01*
X13639799D01*
X13614400Y6807200D01*
X13589000Y6781800D01*
X13563600D01*
X13589000Y6756400D01*
X13563600Y6731000D01*
X13589000D01*
X13614400Y6705600D01*
Y6451600D02*
X13639799Y6477000D01*
X13665199D01*
X13639799Y6502400D01*
X13665199Y6527800D01*
X13639799D01*
X13614400Y6553200D01*
X13589000Y6527800D01*
X13563600D01*
X13589000Y6502400D01*
X13563600Y6477000D01*
X13589000D01*
X13614400Y6451600D01*
Y6197600D02*
X13639799Y6223000D01*
X13665199D01*
X13639799Y6248400D01*
X13665199Y6273800D01*
X13639799D01*
X13614400Y6299200D01*
X13589000Y6273800D01*
X13563600D01*
X13589000Y6248400D01*
X13563600Y6223000D01*
X13589000D01*
X13614400Y6197600D01*
Y5943600D02*
X13639799Y5969000D01*
X13665199D01*
X13639799Y5994400D01*
X13665199Y6019800D01*
X13639799D01*
X13614400Y6045200D01*
X13589000Y6019800D01*
X13563600D01*
X13589000Y5994400D01*
X13563600Y5969000D01*
X13589000D01*
X13614400Y5943600D01*
Y5689600D02*
X13639799Y5715000D01*
X13665199D01*
X13639799Y5740400D01*
X13665199Y5765800D01*
X13639799D01*
X13614400Y5791200D01*
X13589000Y5765800D01*
X13563600D01*
X13589000Y5740400D01*
X13563600Y5715000D01*
X13589000D01*
X13614400Y5689600D01*
Y5435600D02*
X13639799Y5461000D01*
X13665199D01*
X13639799Y5486400D01*
X13665199Y5511800D01*
X13639799D01*
X13614400Y5537200D01*
X13589000Y5511800D01*
X13563600D01*
X13589000Y5486400D01*
X13563600Y5461000D01*
X13589000D01*
X13614400Y5435600D01*
Y5181600D02*
X13639799Y5207000D01*
X13665199D01*
X13639799Y5232400D01*
X13665199Y5257800D01*
X13639799D01*
X13614400Y5283200D01*
X13589000Y5257800D01*
X13563600D01*
X13589000Y5232400D01*
X13563600Y5207000D01*
X13589000D01*
X13614400Y5181600D01*
Y4927600D02*
X13639799Y4953000D01*
X13665199D01*
X13639799Y4978400D01*
X13665199Y5003800D01*
X13639799D01*
X13614400Y5029200D01*
X13589000Y5003800D01*
X13563600D01*
X13589000Y4978400D01*
X13563600Y4953000D01*
X13589000D01*
X13614400Y4927600D01*
Y4673600D02*
X13639799Y4699000D01*
X13665199D01*
X13639799Y4724400D01*
X13665199Y4749800D01*
X13639799D01*
X13614400Y4775200D01*
X13589000Y4749800D01*
X13563600D01*
X13589000Y4724400D01*
X13563600Y4699000D01*
X13589000D01*
X13614400Y4673600D01*
Y4419600D02*
X13639799Y4445000D01*
X13665199D01*
X13639799Y4470400D01*
X13665199Y4495800D01*
X13639799D01*
X13614400Y4521200D01*
X13589000Y4495800D01*
X13563600D01*
X13589000Y4470400D01*
X13563600Y4445000D01*
X13589000D01*
X13614400Y4419600D01*
Y4165600D02*
X13639799Y4191000D01*
X13665199D01*
X13639799Y4216400D01*
X13665199Y4241800D01*
X13639799D01*
X13614400Y4267200D01*
X13589000Y4241800D01*
X13563600D01*
X13589000Y4216400D01*
X13563600Y4191000D01*
X13589000D01*
X13614400Y4165600D01*
Y3911600D02*
X13639799Y3937000D01*
X13665199D01*
X13639799Y3962400D01*
X13665199Y3987800D01*
X13639799D01*
X13614400Y4013200D01*
X13589000Y3987800D01*
X13563600D01*
X13589000Y3962400D01*
X13563600Y3937000D01*
X13589000D01*
X13614400Y3911600D01*
Y3657600D02*
X13639799Y3683000D01*
X13665199D01*
X13639799Y3708400D01*
X13665199Y3733800D01*
X13639799D01*
X13614400Y3759200D01*
X13589000Y3733800D01*
X13563600D01*
X13589000Y3708400D01*
X13563600Y3683000D01*
X13589000D01*
X13614400Y3657600D01*
Y3403600D02*
X13639799Y3429000D01*
X13665199D01*
X13639799Y3454400D01*
X13665199Y3479800D01*
X13639799D01*
X13614400Y3505200D01*
X13589000Y3479800D01*
X13563600D01*
X13589000Y3454400D01*
X13563600Y3429000D01*
X13589000D01*
X13614400Y3403600D01*
X15189200Y2901200D02*
Y3002800D01*
X15290800D01*
Y2901200D01*
X15189200D01*
Y3601200D02*
Y3702800D01*
X15290800D01*
Y3601200D01*
X15189200D01*
D41*
X14532800Y5562600D02*
G03*
X14532800Y5562600I-50800J0D01*
G01*
X14782800D02*
G03*
X14782800Y5562600I-50800J0D01*
G01*
X15032800D02*
G03*
X15032800Y5562600I-50800J0D01*
G01*
X15282800D02*
G03*
X15282800Y5562600I-50800J0D01*
G01*
X12613025Y8102600D02*
G03*
X12613025Y8102600I-50800J0D01*
G01*
X12863025D02*
G03*
X12863025Y8102600I-50800J0D01*
G01*
X13113025D02*
G03*
X13113025Y8102600I-50800J0D01*
G01*
X13363025D02*
G03*
X13363025Y8102600I-50800J0D01*
G01*
%TF.MD5,4320a1b2004d23ba704a94b28913b8c9*%
M02*
