G04*
G04 #@! TF.GenerationSoftware,Altium Limited,Altium Designer,22.5.1 (42)*
G04*
G04 Layer_Color=2752767*
%FSLAX42Y42*%
%MOMM*%
G71*
G04*
G04 #@! TF.SameCoordinates,9A8E8AE2-EB4B-44E5-8707-8227BA4DF72F*
G04*
G04*
G04 #@! TF.FilePolarity,Positive*
G04*
G01*
G75*
%ADD10C,0.20*%
%ADD11C,0.25*%
%ADD12C,0.13*%
%ADD13C,0.05*%
%ADD32C,0.05*%
%ADD33C,0.07*%
D10*
X10475Y3676D02*
G03*
X10475Y3676I-10J0D01*
G01*
X13837Y3432D02*
G03*
X13837Y3432I-10J0D01*
G01*
D11*
X15977Y6718D02*
X15877D01*
X15910Y6752D01*
X15877Y6785D01*
X15977D01*
X15893Y6885D02*
X15877Y6868D01*
Y6835D01*
X15893Y6818D01*
X15960D01*
X15977Y6835D01*
Y6868D01*
X15960Y6885D01*
X15977Y6918D02*
X15877D01*
Y6968D01*
X15893Y6985D01*
X15927D01*
X15943Y6968D01*
Y6918D01*
X15977Y7068D02*
X15877D01*
X15927Y7018D01*
Y7085D01*
X15877Y7118D02*
Y7185D01*
X15893D01*
X15960Y7118D01*
X15977D01*
Y7285D02*
Y7218D01*
X15910Y7285D01*
X15893D01*
X15877Y7268D01*
Y7235D01*
X15893Y7218D01*
X15877Y7385D02*
Y7318D01*
X15927D01*
X15910Y7351D01*
Y7368D01*
X15927Y7385D01*
X15960D01*
X15977Y7368D01*
Y7335D01*
X15960Y7318D01*
D12*
X16671Y3127D02*
Y3477D01*
X16764D01*
X16857D01*
Y3127D02*
Y3477D01*
X16764Y3127D02*
X16857D01*
X16671D02*
X16764D01*
Y3009D02*
Y3127D01*
Y3477D02*
Y3594D01*
X16163Y3127D02*
Y3477D01*
X16256D01*
X16349D01*
Y3127D02*
Y3477D01*
X16256Y3127D02*
X16349D01*
X16163D02*
X16256D01*
Y3009D02*
Y3127D01*
Y3477D02*
Y3594D01*
X15655Y3127D02*
Y3477D01*
X15748D01*
X15840D01*
Y3127D02*
Y3477D01*
X15748Y3127D02*
X15840D01*
X15655D02*
X15748D01*
Y3009D02*
Y3127D01*
Y3477D02*
Y3594D01*
X14237Y5223D02*
X15477D01*
Y5798D01*
X14237D02*
X15477D01*
X14237Y5223D02*
Y5798D01*
X12317Y7763D02*
X13557D01*
Y8338D01*
X12317D02*
X13557D01*
X12317Y7763D02*
Y8338D01*
X9970Y3613D02*
X10710D01*
X9970Y3038D02*
Y3613D01*
Y3038D02*
X10710D01*
Y3613D01*
X11963Y7391D02*
X13741D01*
X11963Y3073D02*
Y7391D01*
X13741Y3073D02*
Y7391D01*
X11963Y3073D02*
X13741D01*
X15148Y3127D02*
Y3477D01*
X15240D01*
X15332D01*
Y3127D02*
Y3477D01*
X15240Y3127D02*
X15332D01*
X15148D02*
X15240D01*
Y3009D02*
Y3127D01*
Y3477D02*
Y3594D01*
D13*
X16646Y3102D02*
Y3502D01*
X16676D01*
Y3740D01*
X16852D01*
Y3502D02*
Y3740D01*
Y3502D02*
X16882D01*
Y3102D02*
Y3502D01*
X16852Y3102D02*
X16882D01*
X16852Y2864D02*
Y3102D01*
X16676Y2864D02*
X16852D01*
X16676D02*
Y3102D01*
X16646D02*
X16676D01*
X16138D02*
Y3502D01*
X16168D01*
Y3740D01*
X16344D01*
Y3502D02*
Y3740D01*
Y3502D02*
X16374D01*
Y3102D02*
Y3502D01*
X16344Y3102D02*
X16374D01*
X16344Y2864D02*
Y3102D01*
X16168Y2864D02*
X16344D01*
X16168D02*
Y3102D01*
X16138D02*
X16168D01*
X15630D02*
Y3502D01*
X15660D01*
Y3740D01*
X15836D01*
Y3502D02*
Y3740D01*
Y3502D02*
X15865D01*
Y3102D02*
Y3502D01*
X15836Y3102D02*
X15865D01*
X15836Y2864D02*
Y3102D01*
X15660Y2864D02*
X15836D01*
X15660D02*
Y3102D01*
X15630D02*
X15660D01*
X14212Y5823D02*
X15502D01*
Y5198D02*
Y5823D01*
X14212Y5198D02*
X15502D01*
X14212D02*
Y5823D01*
X12292Y8363D02*
X13582D01*
Y7738D02*
Y8363D01*
X12292Y7738D02*
X13582D01*
X12292D02*
Y8363D01*
X9945Y3638D02*
X10735D01*
X9945Y3013D02*
Y3638D01*
Y3013D02*
X10735D01*
Y3638D01*
X13766Y3048D02*
Y7416D01*
X11938D02*
X13766D01*
X11938Y3048D02*
Y7416D01*
Y3048D02*
X13766D01*
X15123Y3102D02*
Y3502D01*
X15152D01*
Y3740D01*
X15328D01*
Y3502D02*
Y3740D01*
Y3502D02*
X15357D01*
Y3102D02*
Y3502D01*
X15328Y3102D02*
X15357D01*
X15328Y2864D02*
Y3102D01*
X15152Y2864D02*
X15328D01*
X15152D02*
Y3102D01*
X15123D02*
X15152D01*
D32*
X15118Y7371D02*
X15128Y7391D01*
X15118Y7412D01*
X15138Y7402D01*
X15159Y7412D01*
X15149Y7391D01*
X15159Y7371D01*
X15138Y7381D01*
X15118Y7371D01*
Y7117D02*
X15128Y7137D01*
X15118Y7158D01*
X15138Y7148D01*
X15159Y7158D01*
X15149Y7137D01*
X15159Y7117D01*
X15138Y7127D01*
X15118Y7117D01*
Y6863D02*
X15128Y6883D01*
X15118Y6904D01*
X15138Y6894D01*
X15159Y6904D01*
X15149Y6883D01*
X15159Y6863D01*
X15138Y6873D01*
X15118Y6863D01*
Y6609D02*
X15128Y6629D01*
X15118Y6650D01*
X15138Y6640D01*
X15159Y6650D01*
X15149Y6629D01*
X15159Y6609D01*
X15138Y6619D01*
X15118Y6609D01*
Y7625D02*
X15128Y7645D01*
X15118Y7666D01*
X15138Y7656D01*
X15159Y7666D01*
X15149Y7645D01*
X15159Y7625D01*
X15138Y7635D01*
X15118Y7625D01*
Y7879D02*
X15128Y7899D01*
X15118Y7920D01*
X15138Y7910D01*
X15159Y7920D01*
X15149Y7899D01*
X15159Y7879D01*
X15138Y7889D01*
X15118Y7879D01*
X17302Y8509D02*
X17323Y8529D01*
X17343Y8509D01*
X17323Y8489D01*
X17302Y8509D01*
X9047Y3073D02*
X9068Y3094D01*
X9088Y3073D01*
X9068Y3053D01*
X9047Y3073D01*
X16744Y2932D02*
Y2972D01*
X16784D01*
Y2932D01*
X16744D01*
Y3632D02*
Y3672D01*
X16784D01*
Y3632D01*
X16744D01*
X16236Y2932D02*
Y2972D01*
X16276D01*
Y2932D01*
X16236D01*
Y3632D02*
Y3672D01*
X16276D01*
Y3632D01*
X16236D01*
X15728Y2932D02*
Y2972D01*
X15768D01*
Y2932D01*
X15728D01*
Y3632D02*
Y3672D01*
X15768D01*
Y3632D01*
X15728D01*
X17302Y3073D02*
X17323Y3094D01*
X17343Y3073D01*
X17323Y3053D01*
X17302Y3073D01*
X16744Y4425D02*
X16754Y4445D01*
X16744Y4465D01*
X16764Y4455D01*
X16784Y4465D01*
X16774Y4445D01*
X16784Y4425D01*
X16764Y4435D01*
X16744Y4425D01*
X16490D02*
X16500Y4445D01*
X16490Y4465D01*
X16510Y4455D01*
X16530Y4465D01*
X16520Y4445D01*
X16530Y4425D01*
X16510Y4435D01*
X16490Y4425D01*
X16236D02*
X16246Y4445D01*
X16236Y4465D01*
X16256Y4455D01*
X16276Y4465D01*
X16266Y4445D01*
X16276Y4425D01*
X16256Y4435D01*
X16236Y4425D01*
X15982D02*
X15992Y4445D01*
X15982Y4465D01*
X16002Y4455D01*
X16022Y4465D01*
X16012Y4445D01*
X16022Y4425D01*
X16002Y4435D01*
X15982Y4425D01*
X15728D02*
X15738Y4445D01*
X15728Y4465D01*
X15748Y4455D01*
X15768Y4465D01*
X15758Y4445D01*
X15768Y4425D01*
X15748Y4435D01*
X15728Y4425D01*
X15474D02*
X15484Y4445D01*
X15474Y4465D01*
X15494Y4455D01*
X15514Y4465D01*
X15504Y4445D01*
X15514Y4425D01*
X15494Y4435D01*
X15474Y4425D01*
X15220D02*
X15230Y4445D01*
X15220Y4465D01*
X15240Y4455D01*
X15260Y4465D01*
X15250Y4445D01*
X15260Y4425D01*
X15240Y4435D01*
X15220Y4425D01*
X14974D02*
X14984Y4445D01*
X14974Y4465D01*
X14994Y4455D01*
X15014Y4465D01*
X15004Y4445D01*
X15014Y4425D01*
X14994Y4435D01*
X14974Y4425D01*
X17265Y5543D02*
X17275Y5563D01*
X17265Y5583D01*
X17285Y5573D01*
X17306Y5583D01*
X17296Y5563D01*
X17306Y5543D01*
X17285Y5553D01*
X17265Y5543D01*
X17015D02*
X17025Y5563D01*
X17015Y5583D01*
X17035Y5573D01*
X17056Y5583D01*
X17046Y5563D01*
X17056Y5543D01*
X17035Y5553D01*
X17015Y5543D01*
X16765D02*
X16775Y5563D01*
X16765Y5583D01*
X16785Y5573D01*
X16806Y5583D01*
X16796Y5563D01*
X16806Y5543D01*
X16785Y5553D01*
X16765Y5543D01*
X16515D02*
X16525Y5563D01*
X16515Y5583D01*
X16535Y5573D01*
X16556Y5583D01*
X16546Y5563D01*
X16556Y5543D01*
X16535Y5553D01*
X16515Y5543D01*
X16265D02*
X16275Y5563D01*
X16265Y5583D01*
X16285Y5573D01*
X16306Y5583D01*
X16296Y5563D01*
X16306Y5543D01*
X16285Y5553D01*
X16265Y5543D01*
X16015D02*
X16025Y5563D01*
X16015Y5583D01*
X16035Y5573D01*
X16056Y5583D01*
X16046Y5563D01*
X16056Y5543D01*
X16035Y5553D01*
X16015Y5543D01*
X10215Y3358D02*
X10225Y3368D01*
X10235D01*
X10225Y3378D01*
X10235Y3388D01*
X10225D01*
X10215Y3399D01*
X10205Y3388D01*
X10194D01*
X10205Y3378D01*
X10194Y3368D01*
X10205D01*
X10215Y3358D01*
X10465D02*
X10475Y3368D01*
X10485D01*
X10475Y3378D01*
X10485Y3388D01*
X10475D01*
X10465Y3399D01*
X10455Y3388D01*
X10444D01*
X10455Y3378D01*
X10444Y3368D01*
X10455D01*
X10465Y3358D01*
X9530Y8223D02*
X9540Y8243D01*
X9530Y8264D01*
X9550Y8254D01*
X9571Y8264D01*
X9561Y8243D01*
X9571Y8223D01*
X9550Y8233D01*
X9530Y8223D01*
X11180Y4323D02*
X11190Y4343D01*
X11180Y4364D01*
X11200Y4354D01*
X11221Y4364D01*
X11211Y4343D01*
X11221Y4323D01*
X11200Y4333D01*
X11180Y4323D01*
X9530D02*
X9540Y4343D01*
X9530Y4364D01*
X9550Y4354D01*
X9571Y4364D01*
X9561Y4343D01*
X9571Y4323D01*
X9550Y4333D01*
X9530Y4323D01*
X11180Y8223D02*
X11190Y8243D01*
X11180Y8264D01*
X11200Y8254D01*
X11221Y8264D01*
X11211Y8243D01*
X11221Y8223D01*
X11200Y8233D01*
X11180Y8223D01*
X12090Y3180D02*
X12070Y3221D01*
X12111D01*
X12090Y3180D01*
X13614D02*
X13594Y3221D01*
X13635D01*
X13614Y3180D01*
X12090Y7244D02*
X12070Y7285D01*
X12111D01*
X12090Y7244D01*
X13614D02*
X13594Y7285D01*
X13635D01*
X13614Y7244D01*
X12090Y3434D02*
X12101Y3444D01*
X12111D01*
X12101Y3454D01*
X12111Y3465D01*
X12101D01*
X12090Y3475D01*
X12080Y3465D01*
X12070D01*
X12080Y3454D01*
X12070Y3444D01*
X12080D01*
X12090Y3434D01*
Y3688D02*
X12101Y3698D01*
X12111D01*
X12101Y3708D01*
X12111Y3719D01*
X12101D01*
X12090Y3729D01*
X12080Y3719D01*
X12070D01*
X12080Y3708D01*
X12070Y3698D01*
X12080D01*
X12090Y3688D01*
Y3942D02*
X12101Y3952D01*
X12111D01*
X12101Y3962D01*
X12111Y3973D01*
X12101D01*
X12090Y3983D01*
X12080Y3973D01*
X12070D01*
X12080Y3962D01*
X12070Y3952D01*
X12080D01*
X12090Y3942D01*
Y4196D02*
X12101Y4206D01*
X12111D01*
X12101Y4216D01*
X12111Y4227D01*
X12101D01*
X12090Y4237D01*
X12080Y4227D01*
X12070D01*
X12080Y4216D01*
X12070Y4206D01*
X12080D01*
X12090Y4196D01*
Y4450D02*
X12101Y4460D01*
X12111D01*
X12101Y4470D01*
X12111Y4481D01*
X12101D01*
X12090Y4491D01*
X12080Y4481D01*
X12070D01*
X12080Y4470D01*
X12070Y4460D01*
X12080D01*
X12090Y4450D01*
Y4704D02*
X12101Y4714D01*
X12111D01*
X12101Y4724D01*
X12111Y4735D01*
X12101D01*
X12090Y4745D01*
X12080Y4735D01*
X12070D01*
X12080Y4724D01*
X12070Y4714D01*
X12080D01*
X12090Y4704D01*
Y4958D02*
X12101Y4968D01*
X12111D01*
X12101Y4978D01*
X12111Y4989D01*
X12101D01*
X12090Y4999D01*
X12080Y4989D01*
X12070D01*
X12080Y4978D01*
X12070Y4968D01*
X12080D01*
X12090Y4958D01*
Y5212D02*
X12101Y5222D01*
X12111D01*
X12101Y5232D01*
X12111Y5243D01*
X12101D01*
X12090Y5253D01*
X12080Y5243D01*
X12070D01*
X12080Y5232D01*
X12070Y5222D01*
X12080D01*
X12090Y5212D01*
Y5466D02*
X12101Y5476D01*
X12111D01*
X12101Y5486D01*
X12111Y5497D01*
X12101D01*
X12090Y5507D01*
X12080Y5497D01*
X12070D01*
X12080Y5486D01*
X12070Y5476D01*
X12080D01*
X12090Y5466D01*
Y5720D02*
X12101Y5730D01*
X12111D01*
X12101Y5740D01*
X12111Y5751D01*
X12101D01*
X12090Y5761D01*
X12080Y5751D01*
X12070D01*
X12080Y5740D01*
X12070Y5730D01*
X12080D01*
X12090Y5720D01*
Y5974D02*
X12101Y5984D01*
X12111D01*
X12101Y5994D01*
X12111Y6005D01*
X12101D01*
X12090Y6015D01*
X12080Y6005D01*
X12070D01*
X12080Y5994D01*
X12070Y5984D01*
X12080D01*
X12090Y5974D01*
Y6228D02*
X12101Y6238D01*
X12111D01*
X12101Y6248D01*
X12111Y6259D01*
X12101D01*
X12090Y6269D01*
X12080Y6259D01*
X12070D01*
X12080Y6248D01*
X12070Y6238D01*
X12080D01*
X12090Y6228D01*
Y6482D02*
X12101Y6492D01*
X12111D01*
X12101Y6502D01*
X12111Y6513D01*
X12101D01*
X12090Y6523D01*
X12080Y6513D01*
X12070D01*
X12080Y6502D01*
X12070Y6492D01*
X12080D01*
X12090Y6482D01*
Y6736D02*
X12101Y6746D01*
X12111D01*
X12101Y6756D01*
X12111Y6767D01*
X12101D01*
X12090Y6777D01*
X12080Y6767D01*
X12070D01*
X12080Y6756D01*
X12070Y6746D01*
X12080D01*
X12090Y6736D01*
Y6990D02*
X12101Y7000D01*
X12111D01*
X12101Y7010D01*
X12111Y7021D01*
X12101D01*
X12090Y7031D01*
X12080Y7021D01*
X12070D01*
X12080Y7010D01*
X12070Y7000D01*
X12080D01*
X12090Y6990D01*
X13614D02*
X13625Y7000D01*
X13635D01*
X13625Y7010D01*
X13635Y7021D01*
X13625D01*
X13614Y7031D01*
X13604Y7021D01*
X13594D01*
X13604Y7010D01*
X13594Y7000D01*
X13604D01*
X13614Y6990D01*
Y6736D02*
X13625Y6746D01*
X13635D01*
X13625Y6756D01*
X13635Y6767D01*
X13625D01*
X13614Y6777D01*
X13604Y6767D01*
X13594D01*
X13604Y6756D01*
X13594Y6746D01*
X13604D01*
X13614Y6736D01*
Y6482D02*
X13625Y6492D01*
X13635D01*
X13625Y6502D01*
X13635Y6513D01*
X13625D01*
X13614Y6523D01*
X13604Y6513D01*
X13594D01*
X13604Y6502D01*
X13594Y6492D01*
X13604D01*
X13614Y6482D01*
Y6228D02*
X13625Y6238D01*
X13635D01*
X13625Y6248D01*
X13635Y6259D01*
X13625D01*
X13614Y6269D01*
X13604Y6259D01*
X13594D01*
X13604Y6248D01*
X13594Y6238D01*
X13604D01*
X13614Y6228D01*
Y5974D02*
X13625Y5984D01*
X13635D01*
X13625Y5994D01*
X13635Y6005D01*
X13625D01*
X13614Y6015D01*
X13604Y6005D01*
X13594D01*
X13604Y5994D01*
X13594Y5984D01*
X13604D01*
X13614Y5974D01*
Y5720D02*
X13625Y5730D01*
X13635D01*
X13625Y5740D01*
X13635Y5751D01*
X13625D01*
X13614Y5761D01*
X13604Y5751D01*
X13594D01*
X13604Y5740D01*
X13594Y5730D01*
X13604D01*
X13614Y5720D01*
Y5466D02*
X13625Y5476D01*
X13635D01*
X13625Y5486D01*
X13635Y5497D01*
X13625D01*
X13614Y5507D01*
X13604Y5497D01*
X13594D01*
X13604Y5486D01*
X13594Y5476D01*
X13604D01*
X13614Y5466D01*
Y5212D02*
X13625Y5222D01*
X13635D01*
X13625Y5232D01*
X13635Y5243D01*
X13625D01*
X13614Y5253D01*
X13604Y5243D01*
X13594D01*
X13604Y5232D01*
X13594Y5222D01*
X13604D01*
X13614Y5212D01*
Y4958D02*
X13625Y4968D01*
X13635D01*
X13625Y4978D01*
X13635Y4989D01*
X13625D01*
X13614Y4999D01*
X13604Y4989D01*
X13594D01*
X13604Y4978D01*
X13594Y4968D01*
X13604D01*
X13614Y4958D01*
Y4704D02*
X13625Y4714D01*
X13635D01*
X13625Y4724D01*
X13635Y4735D01*
X13625D01*
X13614Y4745D01*
X13604Y4735D01*
X13594D01*
X13604Y4724D01*
X13594Y4714D01*
X13604D01*
X13614Y4704D01*
Y4450D02*
X13625Y4460D01*
X13635D01*
X13625Y4470D01*
X13635Y4481D01*
X13625D01*
X13614Y4491D01*
X13604Y4481D01*
X13594D01*
X13604Y4470D01*
X13594Y4460D01*
X13604D01*
X13614Y4450D01*
Y4196D02*
X13625Y4206D01*
X13635D01*
X13625Y4216D01*
X13635Y4227D01*
X13625D01*
X13614Y4237D01*
X13604Y4227D01*
X13594D01*
X13604Y4216D01*
X13594Y4206D01*
X13604D01*
X13614Y4196D01*
Y3942D02*
X13625Y3952D01*
X13635D01*
X13625Y3962D01*
X13635Y3973D01*
X13625D01*
X13614Y3983D01*
X13604Y3973D01*
X13594D01*
X13604Y3962D01*
X13594Y3952D01*
X13604D01*
X13614Y3942D01*
Y3688D02*
X13625Y3698D01*
X13635D01*
X13625Y3708D01*
X13635Y3719D01*
X13625D01*
X13614Y3729D01*
X13604Y3719D01*
X13594D01*
X13604Y3708D01*
X13594Y3698D01*
X13604D01*
X13614Y3688D01*
Y3434D02*
X13625Y3444D01*
X13635D01*
X13625Y3454D01*
X13635Y3465D01*
X13625D01*
X13614Y3475D01*
X13604Y3465D01*
X13594D01*
X13604Y3454D01*
X13594Y3444D01*
X13604D01*
X13614Y3434D01*
X15220Y2932D02*
Y2972D01*
X15260D01*
Y2932D01*
X15220D01*
Y3632D02*
Y3672D01*
X15260D01*
Y3632D01*
X15220D01*
D33*
X14502Y5563D02*
G03*
X14502Y5563I-20J0D01*
G01*
X14752D02*
G03*
X14752Y5563I-20J0D01*
G01*
X15002D02*
G03*
X15002Y5563I-20J0D01*
G01*
X15252D02*
G03*
X15252Y5563I-20J0D01*
G01*
X12583Y8103D02*
G03*
X12583Y8103I-20J0D01*
G01*
X12833D02*
G03*
X12833Y8103I-20J0D01*
G01*
X13083D02*
G03*
X13083Y8103I-20J0D01*
G01*
X13333D02*
G03*
X13333Y8103I-20J0D01*
G01*
M02*
