M48
;Layer_Color=9474304
;FILE_FORMAT=4:2
METRIC,TZ
;TYPE=PLATED
T1F00S00C0.75
T2F00S00C0.76
T3F00S00C1.00
T4F00S00C1.06
T5F00S00C3.00
;TYPE=NON_PLATED
T6F00S00C1.65
%
T01
X15240Y2952
X15748
Y3652
X15240
X16256
X16764
Y2952
X16256
T02
X16002Y4445
X16256
X16510
X16764
X16785Y5563
X17035
X17285
X16535
X16285
X16035
X15748Y4445
X15494
X15240
X14994
X15138Y6629
Y6883
Y7137
Y7391
Y7645
Y7899
X11200Y4343
X9550
Y8243
X11200
T03
X10215Y3378
X10465
X12090Y3454
Y3708
Y3962
X13614
Y3708
Y3454
Y4216
Y4470
Y4724
Y4978
Y5232
Y5486
Y5740
Y5994
Y6248
Y6502
Y6756
Y7010
X12090
Y6756
Y6502
Y6248
Y5994
Y5740
Y5486
Y5232
Y4978
Y4724
Y4470
Y4216
T04
X14482Y5563
X14732
X14982
X15232
X13312Y8103
X13062
X12812
X12562
T05
X9068Y3073
X17323
Y8509
T06
X12090Y3200
X13614
Y7264
X12090
M30
